<?xml version="1.0" standalone="no"?>
<!DOCTYPE svg PUBLIC "-//W3C//DTD SVG 20010904//EN"
 "http://www.w3.org/TR/2001/REC-SVG-20010904/DTD/svg10.dtd">
<svg version="1.0" xmlns="http://www.w3.org/2000/svg"
 width="373.000000pt" height="373.000000pt" viewBox="0 0 373.000000 373.000000"
 preserveAspectRatio="xMidYMid meet">
<metadata>
Created by potrace 1.14, written by Peter Selinger 2001-2017
</metadata>
<g transform="translate(0.000000,373.000000) scale(0.100000,-0.100000)"
fill="#000000" stroke="none">
<path d="M2067 3017 c-37 -45 -82 -98 -100 -118 -17 -19 -66 -75 -107 -124
-64 -76 -173 -201 -269 -310 -14 -17 -51 -59 -81 -95 -30 -36 -57 -67 -60 -70
-3 -3 -30 -34 -60 -70 -30 -36 -58 -67 -61 -70 -5 -4 -189 -218 -318 -369 -25
-30 -53 -61 -62 -70 -9 -9 -98 -113 -199 -231 -101 -118 -187 -217 -190 -220
-3 -3 -75 -86 -160 -185 -143 -167 -262 -304 -332 -383 -41 -46 -31 -49 17 -4
22 20 87 78 145 127 58 50 110 95 116 100 6 6 39 35 74 65 35 30 68 60 74 65
6 6 58 51 116 100 58 50 141 122 185 160 400 348 419 364 465 381 25 9 59 22
75 29 17 6 89 35 160 64 l130 51 176 263 c97 144 212 315 255 379 l79 118 35
-42 c19 -23 115 -138 214 -257 98 -119 197 -238 221 -266 33 -40 378 -454 428
-515 7 -8 68 -82 137 -165 69 -82 132 -158 140 -169 8 -10 20 -23 25 -30 6 -6
30 -36 55 -66 25 -30 47 -57 50 -60 3 -3 59 -70 124 -150 66 -80 124 -149 129
-155 20 -20 0 12 -195 310 -46 72 -102 157 -124 190 -21 33 -41 65 -44 70 -3
6 -41 64 -84 130 -44 66 -101 153 -128 193 -26 41 -48 77 -48 82 0 5 -3 10 -8
12 -4 2 -23 28 -42 58 -19 30 -87 136 -152 234 -65 98 -118 180 -118 182 0 2
-37 60 -82 128 -46 69 -123 187 -172 263 -49 76 -135 208 -191 293 -55 85
-111 172 -124 193 -12 20 -28 37 -34 36 -7 0 -42 -37 -80 -82z"/>
<path d="M2144 2352 c-6 -4 -25 -32 -43 -62 -18 -30 -45 -75 -61 -100 -15 -25
-51 -83 -80 -130 -28 -47 -64 -105 -80 -130 -16 -25 -33 -52 -37 -60 -5 -9
-39 -65 -76 -126 l-68 -111 -92 -28 c-51 -16 -96 -29 -102 -30 -42 -9 -223
-70 -237 -79 -9 -6 -43 -35 -75 -63 -32 -28 -130 -112 -218 -188 -88 -75 -173
-149 -190 -164 -16 -15 -77 -67 -135 -116 -58 -50 -107 -92 -110 -95 -5 -5
-108 -94 -170 -146 -80 -69 -81 -72 -10 -29 41 25 82 49 90 55 8 6 65 41 125
78 61 38 260 162 444 276 332 206 335 208 485 258 83 27 156 51 161 52 67 13
84 28 160 139 42 62 110 162 152 222 42 61 103 149 136 197 l60 88 51 -49 c28
-26 84 -79 125 -117 41 -38 86 -80 101 -94 14 -14 84 -79 155 -145 70 -66 133
-125 139 -130 108 -102 106 -96 -29 85 -76 102 -164 219 -194 260 -31 41 -61
82 -68 90 -7 8 -34 44 -60 80 -26 36 -53 72 -60 80 -6 8 -36 47 -65 87 -68 93
-88 119 -102 138 -6 8 -16 11 -22 7z"/>
</g>
</svg>
